<svg width="18" height="18" viewBox="0 0 18 18" fill="none" xmlns="http://www.w3.org/2000/svg">
<path fill-rule="evenodd" clip-rule="evenodd" d="M13.0325 0H4.96724C2.22831 0 0 2.22841 0 4.96735V13.0327C0 15.7717 2.22831 18 4.96724 18H13.0325C15.7717 18 18 15.7716 18 13.0327V4.96735C18.0001 2.22841 15.7717 0 13.0325 0ZM17.0001 13.3579C17.0001 15.3662 15.3662 17 13.3579 17H4.642C2.6338 17.0001 1 15.3662 1 13.3579V4.64212C1 2.63392 2.6338 1 4.642 1H13.3578C15.3661 1 17 2.63392 17 4.64212V13.3579H17.0001ZM4.36186 9.00021C4.36186 6.4427 6.44249 4.36207 9 4.36207C11.5575 4.36207 13.6381 6.4427 13.6381 9.00021C13.6381 11.5576 11.5575 13.6381 9 13.6381C6.44249 13.6381 4.36186 11.5576 4.36186 9.00021ZM13.4349 2.83418C13.5833 2.68509 13.7898 2.6 14 2.6C14.2109 2.6 14.4175 2.68509 14.5658 2.83418C14.7149 2.98255 14.8 3.18909 14.8 3.4C14.8 3.61018 14.7149 3.81673 14.5658 3.96582C14.4167 4.11418 14.2109 4.2 14 4.2C13.7898 4.2 13.5833 4.11418 13.4349 3.96582C13.2858 3.81673 13.2 3.61025 13.2 3.4C13.2 3.18909 13.2857 2.98255 13.4349 2.83418Z" fill="white"/>
</svg>
