<svg width="18" height="16" viewBox="0 0 18 16" fill="none" xmlns="http://www.w3.org/2000/svg">
<path fill-rule="evenodd" clip-rule="evenodd" d="M17.5302 2.09487C17.6525 2.06362 17.8052 2.09487 17.8969 2.1886C17.9885 2.28233 18.0191 2.43856 17.9886 2.56358C17.7136 3.46975 17.1637 4.12596 16.4915 4.46969V4.56342C16.4915 10.5942 12.092 15.5 6.71486 15.5C3.6902 15.5 1.24606 14.9688 0.146179 14.0626C0.0239777 13.9376 -0.0371407 13.7814 0.0239777 13.5939C0.0850609 13.4377 0.237822 13.3127 0.421142 13.3127C2.22371 13.2814 3.38468 12.844 4.27068 12.3127C2.55976 12.094 1.49043 11.2503 0.940507 9.6567C0.879389 9.50047 0.940507 9.34427 1.06271 9.2505C1.18491 9.15674 1.36823 9.15674 1.49043 9.21925C1.94871 9.53172 2.407 9.59423 2.95692 9.59423C1.79595 8.87555 0.726628 7.68813 0.298905 6.21952C0.268346 6.06328 0.329464 5.87582 0.451666 5.81331C0.604426 5.71959 0.757187 5.75084 0.879389 5.84457C1.21547 6.12579 1.58211 6.31328 2.13203 6.40701C0.940507 5.15711 0.207262 3.31352 1.24603 1.28243L1.42935 0.907445L1.7348 1.21992C3.62905 3.25101 5.3705 4.18843 8.54792 4.81338V4.6884C8.54792 2.40735 10.2894 0.532496 12.4586 0.501242C13.314 0.501242 14.5056 1.12619 14.9944 1.40741C15.0061 1.40741 15.0177 1.41197 15.0277 1.41587C15.0438 1.42217 15.0555 1.42673 15.0555 1.40741C15.6666 1.21996 16.3998 0.907481 17.2552 0.532496C17.3775 0.470023 17.5302 0.501278 17.6219 0.595006C17.7136 0.68877 17.7441 0.813753 17.683 0.96999C17.5302 1.40745 17.2858 1.87616 16.9192 2.31362L17.5302 2.09487ZM15.7354 4.23772L15.9133 4.17735C16.4765 3.96612 16.8025 3.51342 17.01 3.12114L15.854 3.51346C15.7058 3.57383 15.528 3.51346 15.4687 3.36256C15.4094 3.21166 15.4391 3.03058 15.5576 2.94005C16.0319 2.5477 16.3875 2.12519 16.6543 1.6725C16.0615 1.91392 15.528 2.12519 15.0834 2.27609C14.9056 2.33643 14.7277 2.30624 14.5499 2.21572L14.5311 2.20529C14.1826 2.01158 13.085 1.40141 12.4158 1.43104C10.6374 1.46123 9.21466 3.00039 9.21466 4.8715V5.71651L8.85897 5.65614C5.59857 5.05255 3.79051 4.17735 1.89354 2.27606C1.00434 4.56971 2.84201 6.16921 3.46446 6.6219L4.20544 7.16515H3.28658C2.69378 7.16515 2.04171 7.10478 1.44891 6.83317C2.10101 8.2214 3.43482 9.2475 4.56113 9.57948L4.47223 10.1831C4.23512 10.1831 3.99797 10.1831 3.76087 10.2133C3.13841 10.2434 2.57526 10.2434 2.04175 10.0624C2.63455 11.2092 3.67196 11.692 5.36143 11.692H6.25064L5.50963 12.2353C4.59078 12.9596 3.40517 13.6235 1.36 13.7744C2.33811 14.2573 4.14614 14.71 6.84341 14.71C11.4647 14.71 15.7354 9.99899 15.7354 4.75079V4.23772Z" fill="white"/>
</svg>
